<svg width="11" height="16" viewBox="0 0 11 16" fill="none" xmlns="http://www.w3.org/2000/svg">
  <path d="M8.90476 6.17169V4.44836C8.90338 3.51661 8.53263 2.62342 7.87378 1.96457C7.21494 1.30573 6.32175 0.934979 5.39 0.933594H5.08619C4.15444 0.934979 3.26125 1.30573 2.60241 1.96457C1.94356 2.62342 1.57281 3.51661 1.57143 4.44836V6.17169C1.15466 6.17169 0.754961 6.33725 0.460261 6.63195C0.165561 6.92665 0 7.32635 0 7.74312V12.6145C0.00138484 13.406 0.316395 14.1646 0.876025 14.7242C1.43566 15.2839 2.19428 15.5989 2.98571 15.6003H7.49048C8.28191 15.5989 9.04054 15.2839 9.60017 14.7242C10.1598 14.1646 10.4748 13.406 10.4762 12.6145V7.74312C10.4762 7.32635 10.3106 6.92665 10.0159 6.63195C9.72123 6.33725 9.32153 6.17169 8.90476 6.17169ZM2.61905 4.44836C2.61905 3.79403 2.87898 3.1665 3.34166 2.70382C3.80434 2.24114 4.43186 1.98121 5.08619 1.98121H5.39C6.04433 1.98121 6.67186 2.24114 7.13453 2.70382C7.59721 3.1665 7.85714 3.79403 7.85714 4.44836V6.17169H2.61905V4.44836ZM9.42857 12.6145C9.42857 13.1286 9.22438 13.6215 8.86092 13.985C8.49745 14.3485 8.00449 14.5526 7.49048 14.5526H2.98571C2.4717 14.5526 1.97874 14.3485 1.61527 13.985C1.25181 13.6215 1.04762 13.1286 1.04762 12.6145V7.74312C1.04762 7.6042 1.10281 7.47096 1.20104 7.37273C1.29927 7.2745 1.43251 7.21931 1.57143 7.21931H8.90476C9.04368 7.21931 9.17692 7.2745 9.27515 7.37273C9.37339 7.47096 9.42857 7.6042 9.42857 7.74312V12.6145Z" fill="#FE5E54"/>
  <path d="M5.76192 10.7391V12.4572C5.76192 12.5961 5.70673 12.7293 5.6085 12.8275C5.51027 12.9258 5.37703 12.981 5.23811 12.981C5.09919 12.981 4.96595 12.9258 4.86772 12.8275C4.76949 12.7293 4.7143 12.5961 4.7143 12.4572V10.7391C4.51458 10.6238 4.35849 10.4458 4.27024 10.2327C4.18198 10.0196 4.1665 9.78341 4.22619 9.56065C4.28588 9.3379 4.4174 9.14106 4.60036 9.00067C4.78332 8.86028 5.00749 8.78418 5.23811 8.78418C5.46873 8.78418 5.6929 8.86028 5.87586 9.00067C6.05882 9.14106 6.19035 9.3379 6.25003 9.56065C6.30972 9.78341 6.29424 10.0196 6.20598 10.2327C6.11773 10.4458 5.96164 10.6238 5.76192 10.7391Z" fill="#FE5E54"/>
</svg>
