<svg width="11" height="15" viewBox="0 0 11 15" fill="none" xmlns="http://www.w3.org/2000/svg">
  <path d="M5.77397 10.0774V11.8267C5.77397 11.9682 5.71778 12.1038 5.61776 12.2038C5.51774 12.3039 5.38208 12.3601 5.24063 12.3601C5.09918 12.3601 4.96352 12.3039 4.8635 12.2038C4.76348 12.1038 4.70729 11.9682 4.70729 11.8267V10.0774C4.50394 9.95996 4.34501 9.77873 4.25515 9.56179C4.16529 9.34485 4.14952 9.10433 4.2103 8.87752C4.27107 8.6507 4.40499 8.45028 4.59128 8.30734C4.77757 8.1644 5.00582 8.08691 5.24063 8.08691C5.47544 8.08691 5.70369 8.1644 5.88998 8.30734C6.07627 8.45028 6.21019 8.6507 6.27096 8.87752C6.33174 9.10433 6.31597 9.34485 6.22611 9.56179C6.13625 9.77873 5.97732 9.95996 5.77397 10.0774Z" fill="#006D36"/>
  <path d="M5.48828 0C6.43687 0.00146898 7.34583 0.379068 8.0166 1.0498C8.10688 1.14008 8.19203 1.23458 8.27148 1.33301H6.6084C6.26335 1.16086 5.88114 1.06644 5.48828 1.06641H5.17871C4.51257 1.06641 3.87342 1.33077 3.40234 1.80176C2.93133 2.27277 2.66709 2.91202 2.66699 3.57812V5.33301H9.06641C9.49076 5.33301 9.89818 5.5017 10.1982 5.80176C10.4983 6.10182 10.667 6.50925 10.667 6.93359V11.8936C10.6655 12.6993 10.3442 13.4713 9.77441 14.041C9.20466 14.6107 8.43269 14.9321 7.62695 14.9336H3.04004C2.23421 14.9322 1.46141 14.6108 0.891602 14.041C0.322069 13.4713 0.00149268 12.6991 0 11.8936V6.93359C0 6.50924 0.168689 6.10182 0.46875 5.80176C0.768708 5.50184 1.17544 5.33312 1.59961 5.33301V3.57812C1.60111 2.6297 1.97886 1.72052 2.64941 1.0498C3.32024 0.378976 4.23002 0.00141408 5.17871 0H5.48828ZM1.59961 6.39941C1.45834 6.39952 1.32257 6.45579 1.22266 6.55566C1.12264 6.65568 1.06641 6.79214 1.06641 6.93359V11.8936C1.06649 12.4168 1.27453 12.9191 1.64453 13.2891C2.01459 13.659 2.51675 13.8662 3.04004 13.8662H7.62695C8.15022 13.8662 8.65244 13.6591 9.02246 13.2891C9.39246 12.9191 9.6005 12.4168 9.60059 11.8936V6.93359C9.60059 6.79215 9.54434 6.65568 9.44434 6.55566C9.34432 6.45564 9.20786 6.39941 9.06641 6.39941H1.59961Z" fill="#006D36"/>
</svg>
