<svg width="24" height="24" viewBox="0 0 13 10" fill="currentColor" xmlns="http://www.w3.org/2000/svg">
  <path d="M3.99204 5.00206C4.29261 5.00206 4.58642 4.91094 4.83634 4.74022C5.08625 4.56949 5.28103 4.32684 5.39606 4.04294C5.51108 3.75904 5.54117 3.44664 5.48253 3.14525C5.4239 2.84387 5.27916 2.56702 5.06663 2.34974C4.85409 2.13245 4.58331 1.98447 4.28852 1.92452C3.99372 1.86457 3.68816 1.89534 3.41048 2.01294C3.13279 2.13053 2.89544 2.32967 2.72846 2.58518C2.56147 2.84068 2.47234 3.14107 2.47234 3.44836C2.47283 3.86028 2.6331 4.25518 2.91799 4.54644C3.20288 4.83771 3.58914 5.00156 3.99204 5.00206ZM3.99204 2.57318C4.16131 2.57335 4.32673 2.62482 4.4674 2.72109C4.60806 2.81736 4.71765 2.9541 4.78231 3.11404C4.84698 3.27397 4.86381 3.44992 4.83068 3.61963C4.79756 3.78934 4.71596 3.94521 4.59621 4.06752C4.47646 4.18983 4.32393 4.2731 4.15789 4.3068C3.99186 4.3405 3.81979 4.32312 3.66341 4.25685C3.50704 4.19059 3.3734 4.07841 3.27937 3.9345C3.18535 3.7906 3.13516 3.62142 3.13516 3.44836C3.13538 3.21617 3.22576 2.99357 3.38643 2.82946C3.5471 2.66536 3.76493 2.57318 3.99204 2.57318ZM3.99204 5.33118C2.67917 5.33118 1.61076 6.42315 1.61076 7.76522C1.61076 7.8552 1.64572 7.94148 1.70795 8.00511C1.77018 8.06873 1.85458 8.10447 1.94259 8.10447H6.04098C6.129 8.10447 6.21342 8.06874 6.27568 8.00512C6.33794 7.9415 6.37294 7.85521 6.37298 7.76522C6.37298 6.42315 5.30491 5.33118 3.99204 5.33118ZM2.30702 7.42682C2.38396 7.02775 2.59404 6.66838 2.90136 6.41007C3.20868 6.15176 3.59419 6.01054 3.99204 6.01054C4.38989 6.01054 4.77539 6.15176 5.08272 6.41007C5.39004 6.66838 5.60012 7.02775 5.67706 7.42682H2.30702ZM11.215 6.92284C11.215 7.01282 11.18 7.09911 11.1178 7.16273C11.0556 7.22635 10.9712 7.26209 10.8832 7.26209H7.6499C7.56189 7.26209 7.47749 7.22635 7.41526 7.16273C7.35303 7.09911 7.31807 7.01282 7.31807 6.92284C7.31807 6.83286 7.35303 6.74657 7.41526 6.68295C7.47749 6.61933 7.56189 6.58359 7.6499 6.58359H10.8832C10.9711 6.58359 11.0554 6.61923 11.1176 6.68271C11.1798 6.74618 11.2148 6.83229 11.215 6.92215V6.92284ZM11.215 5.00034C11.215 5.0449 11.2064 5.08901 11.1897 5.13017C11.1731 5.17133 11.1486 5.20873 11.1178 5.24023C11.087 5.27174 11.0504 5.29672 11.0102 5.31377C10.9699 5.33082 10.9268 5.3396 10.8832 5.3396H7.6499C7.56189 5.3396 7.47749 5.30385 7.41526 5.24023C7.35303 5.17661 7.31807 5.09032 7.31807 5.00034C7.31807 4.91037 7.35303 4.82408 7.41526 4.76046C7.47749 4.69683 7.56189 4.66109 7.6499 4.66109H10.8832C10.9711 4.66109 11.0554 4.69674 11.1176 4.76021C11.1798 4.82369 11.2148 4.9098 11.215 4.99966V5.00034ZM11.215 3.07785C11.215 3.16782 11.18 3.25411 11.1178 3.31774C11.0556 3.38136 10.9712 3.4171 10.8832 3.4171H7.6499C7.56189 3.4171 7.47749 3.38136 7.41526 3.31774C7.35303 3.25411 7.31807 3.16782 7.31807 3.07785C7.31807 2.98787 7.35303 2.90158 7.41526 2.83796C7.47749 2.77434 7.56189 2.73859 7.6499 2.73859H10.8832C10.9711 2.73859 11.0554 2.77424 11.1176 2.83772C11.1798 2.90119 11.2148 2.9873 11.215 3.07716V3.07785ZM11.177 0.000686981H1.82296C1.33963 0.00127804 0.876265 0.19785 0.534513 0.54728C0.192761 0.89671 0.000533575 1.37046 0 1.86461V8.13608C0.000533575 8.63023 0.192761 9.10398 0.534513 9.45341C0.876265 9.80284 1.33963 9.99941 1.82296 10H11.177C11.6604 9.99941 12.1237 9.80284 12.4655 9.45341C12.8072 9.10398 12.9995 8.63023 13 8.13608V1.86392C12.9995 1.36978 12.8072 0.896023 12.4655 0.546593C12.1237 0.197163 11.6604 0.000591054 11.177 0V0.000686981ZM12.3363 8.13608C12.336 8.45031 12.2137 8.75157 11.9964 8.97377C11.7791 9.19597 11.4844 9.32096 11.177 9.32132H1.82296C1.51561 9.32096 1.22094 9.19597 1.00361 8.97377C0.78627 8.75157 0.664016 8.45031 0.66366 8.13608V1.86392C0.664016 1.54969 0.78627 1.24843 1.00361 1.02623C1.22094 0.804033 1.51561 0.679043 1.82296 0.678679H11.177C11.4844 0.679043 11.7791 0.804033 11.9964 1.02623C12.2137 1.24843 12.336 1.54969 12.3363 1.86392V8.13608Z" />
</svg>
