<svg width="9" height="15" viewBox="0 0 9 15" fill="none" xmlns="http://www.w3.org/2000/svg">
  <path d="M2.47607 12.9341C2.47607 13.0667 2.52875 13.1939 2.62252 13.2876C2.71629 13.3814 2.84347 13.4341 2.97607 13.4341H5.97607C6.10868 13.4341 6.23586 13.3814 6.32963 13.2876C6.4234 13.1939 6.47607 13.0667 6.47607 12.9341C6.47607 12.8015 6.4234 12.6743 6.32963 12.5805C6.23586 12.4868 6.10868 12.4341 5.97607 12.4341H2.97607C2.84347 12.4341 2.71629 12.4868 2.62252 12.5805C2.52875 12.6743 2.47607 12.8015 2.47607 12.9341Z" fill="#F5B426"/>
  <path d="M8.47616 3.43408V2.18408C8.47616 2.01993 8.44383 1.85738 8.38101 1.70573C8.31819 1.55407 8.22612 1.41627 8.11004 1.3002C7.99397 1.18413 7.85617 1.09205 7.70451 1.02923C7.55286 0.966414 7.39031 0.934082 7.22616 0.934082H1.72616C1.39464 0.934082 1.0767 1.06578 0.842276 1.3002C0.607855 1.53462 0.476159 1.85256 0.476159 2.18408V3.43408C0.474055 4.13366 0.610865 4.8267 0.878655 5.473C1.14644 6.1193 1.53989 6.706 2.03616 7.19908L2.80116 7.96408L1.71116 9.27408C0.915011 10.2303 0.478152 11.4348 0.476159 12.6791V13.6791C0.475501 13.8437 0.507347 14.0067 0.569871 14.159C0.632395 14.3112 0.724364 14.4496 0.840503 14.5662C0.956642 14.6828 1.09466 14.7753 1.24665 14.8385C1.39863 14.9016 1.56159 14.9341 1.72616 14.9341H7.22616C7.39031 14.9341 7.55286 14.9017 7.70451 14.8389C7.85617 14.7761 7.99397 14.684 8.11004 14.568C8.22612 14.4519 8.31819 14.3141 8.38101 14.1624C8.44383 14.0108 8.47616 13.8482 8.47616 13.6841V12.6841C8.47417 11.4398 8.03731 10.2353 7.24116 9.27908L6.15116 7.96908L6.91616 7.20408C7.41303 6.71041 7.80682 6.1229 8.07463 5.47569C8.34244 4.82849 8.47893 4.1345 8.47616 3.43408ZM5.12116 7.57908C5.03263 7.66745 4.98045 7.78579 4.97489 7.91075C4.96934 8.03571 5.01082 8.15821 5.09116 8.25408L6.47616 9.93408C7.12217 10.7107 7.47596 11.6889 7.47616 12.6991V13.6991C7.47616 13.7654 7.44982 13.829 7.40294 13.8759C7.35605 13.9227 7.29246 13.9491 7.22616 13.9491H1.72616C1.65986 13.9491 1.59627 13.9227 1.54938 13.8759C1.5025 13.829 1.47616 13.7654 1.47616 13.6991V12.6991C1.47636 11.6889 1.83015 10.7107 2.47616 9.93408L3.86116 8.27408C3.9415 8.17821 3.98298 8.05571 3.97743 7.93075C3.97187 7.80579 3.91968 7.68745 3.83116 7.59908L2.74116 6.51408C2.33636 6.1104 2.01602 5.63015 1.79883 5.10133C1.58164 4.57252 1.47195 4.00574 1.47616 3.43408V2.18408C1.47616 2.11778 1.5025 2.05419 1.54938 2.00731C1.59627 1.96042 1.65986 1.93408 1.72616 1.93408H7.22616C7.29246 1.93408 7.35605 1.96042 7.40294 2.00731C7.44982 2.05419 7.47616 2.11778 7.47616 2.18408V3.43408C7.47772 4.00238 7.36674 4.56537 7.14962 5.09057C6.93251 5.61576 6.61355 6.09277 6.21116 6.49408L5.12116 7.57908Z" fill="#F5B426"/>
</svg>
