<svg width="24" height="24" viewBox="0 0 24 24" fill="none" xmlns="http://www.w3.org/2000/svg">
  <path d="M2 9C2 8.44772 2.44772 8 3 8H21C21.5523 8 22 8.44772 22 9C22 10.1046 21.1046 11 20 11C18.8954 11 18 11.8954 18 13C18 14.1046 18.8954 15 20 15C21.1046 15 22 15.8954 22 17C22 17.5523 21.5523 18 21 18H3C2.44772 18 2 17.5523 2 17C2 15.8954 2.89543 15 4 15C5.10457 15 6 14.1046 6 13C6 11.8954 5.10457 11 4 11C2.89543 11 2 10.1046 2 9Z" stroke="currentColor" stroke-width="2" stroke-linecap="round" stroke-linejoin="round"/>
  <path d="M10 10L14 14" stroke="currentColor" stroke-width="2" stroke-linecap="round" stroke-linejoin="round"/>
  <path d="M14 10L10 14" stroke="currentColor" stroke-width="2" stroke-linecap="round" stroke-linejoin="round"/>
</svg>