<svg id="b" xmlns="http://www.w3.org/2000/svg" viewBox="0 0 150 150" width="150" height="150">
    <defs>
        <style>
            .af,.ag{stroke-width:5px}.af,.ag,.ah,.aj{fill:#fff}.af,.ag{stroke:#ccd6e2}.af{stroke-miterlimit:10}.ag{stroke-linecap:round;stroke-linejoin:round}.am{fill:#f2f5f8}.an{fill:#ccd6e2}.aj,.am,.ap{fill-rule:evenodd}.ap{opacity:.75;fill:#cbd6e5}
        </style>
    </defs>
    <g id="c">
        <g id="d">
            <g id="e">
                <g id="f">
                    <path id="g" d="M2.19 109.36c-2.92-1.69-2.92-4.44 0-6.13l67.5-38.97c2.92-1.69 7.69-1.69 10.61 0l67.51 38.97c2.92 1.69 2.92 4.44 0 6.13L80.3 148.33c-2.92 1.69-7.69 1.69-10.61 0l-67.5-38.97z" fill-rule="evenodd" fill="rgba(234,240,246,.75)"/>
                </g>
            </g>
        </g>
        <path id="h" class="af" d="M100.36 64.82l-10.29 39.99-52.77-.64c-1.07.62-23.71-11.05-25.24-11.2L7.02 51.28c-.21-1.68 2-2.96 4.92-2.84l71.81 3.03c.25.88 17.68 12.72 16.61 13.34z"/>
        <path id="i" class="af" d="M82.48 8.82c0-5.2-3.69-7.34-8.2-4.74l-45.5 26.16c-4.51 2.59-8.2 8.97-8.2 14.17v35.75s0 26.41 30.95 26.41l21.79-1.27c5.19-.3 12.07-3.9 15.28-7.99l11.04-14.06c3.21-4.09 6-7.54 6.19-7.67-23.35-5.33-23.35-25.6-23.35-25.6V8.82z"/>
        <path id="j" class="ag" d="M143 86.07l-9.14-3.7-.57.55L87.1 56.25c-.97-.56 2.95 3.65 1.75 3.54l5.09 27.23-23.15-.69c-2.91-.12 1.56 4.96 1.77 6.65l-5.47 5.99-36.88-1.53-18.16-4.47v3.71c.2.69.76 1.38 1.73 1.94l54.13 31.25c.91.53 2.02.8 3.14.94 1.53.15 3.06-.07 4.14-.69l66.54-38.42c.86-.5 1.27-1.16 1.27-1.86v-3.77z"/>
        <path id="k" class="ag" d="M142.75 85.54h.18c-.23-.65-.78-1.29-1.69-1.81L87.11 52.48c-.97-.56-2.16-.89-3.35-1l3.95 31.78 55.05 2.28z"/>
        <path id="l" d="M13.25 90.58l66.54-38.42c1.07-.62 2.61-.83 4.14-.69l5.18 41.64c.21 1.68-2 2.96-4.92 2.84l-72.13-2.99c-.25-.88.12-1.77 1.19-2.39" fill="#d4e7f7" fill-rule="evenodd"/>
        <path id="m" d="M13.25 90.58l66.54-38.42c1.07-.62 2.61-.83 4.14-.69l5.18 41.64c.21 1.68-2 2.96-4.92 2.84l-72.13-2.99c-.25-.88.12-1.77 1.19-2.39z" stroke="#33475c" fill="none"/>
        <path id="n" class="am" d="M100.36 64.82l-10.29 39.99-52.77-.64c-1.07.62-23.71-11.05-25.24-11.2L7.02 51.28c-.21-1.68 2-2.96 4.92-2.84l71.81 3.03c.25.88 17.68 12.72 16.61 13.34"/>
        <path id="o" d="M100.36 64.82l-10.29 39.99-52.77-.64c-1.07.62-23.71-11.05-25.24-11.2L7.02 51.28c-.21-1.68 2-2.96 4.92-2.84l71.81 3.03c.25.88 17.68 12.72 16.61 13.34z" fill="#f2f5f8"/>
        <path class="an" d="M90.84 105.82l-53.37-.65c-.92.22-3.15-.67-15.95-6.8-4.16-2-8.88-4.26-9.6-4.41l-.8-.08-.05-.79L6.03 51.4c-.1-.83.17-1.63.78-2.3 1.04-1.13 2.97-1.75 5.17-1.66l72.54 3.06.15.52c.62.62 3.61 2.82 6.27 4.78 9.57 7.05 10.53 7.99 10.48 8.99l-.03.54-.14.1-10.39 40.39zm-53.8-2.66l52.26.64 10.02-38.94c-1.1-1.2-6.15-4.92-9.57-7.44-4.19-3.09-5.81-4.31-6.47-4.96L11.9 49.44c-1.91-.08-3.14.5-3.62 1.02-.31.34-.28.61-.27.7l4.97 41.05c1.25.47 3.87 1.7 9.41 4.36 5.22 2.5 13.01 6.24 14.65 6.6z"/>
        <path id="p" class="aj" d="M82.48 8.82c0-5.2-3.69-7.34-8.2-4.74l-45.5 26.16c-4.51 2.59-8.2 8.97-8.2 14.17v35.75s0 26.41 30.95 26.41l21.79-1.27c5.19-.3 12.07-3.9 15.28-7.99l11.04-14.06c3.21-4.09 6-7.54 6.19-7.67-23.35-5.33-23.35-25.6-23.35-25.6V8.82z"/>
        <path id="q" class="ah" d="M82.48 8.82c0-5.2-3.69-7.34-8.2-4.74l-45.5 26.16c-4.51 2.59-8.2 8.97-8.2 14.17v35.75s0 26.41 30.95 26.41c0 0 54.11-30.86 54.3-30.99-23.35-5.33-23.35-25.6-23.35-25.6V8.82z"/>
        <path class="an" d="M51.79 107.57h-.27c-31.58 0-31.95-27.13-31.95-27.41V44.41c0-5.53 3.9-12.28 8.7-15.04L73.78 3.21c2.5-1.44 4.92-1.64 6.79-.55 1.88 1.08 2.91 3.27 2.91 6.16v41.16c0 .79.31 19.54 22.58 24.62l2.23.51-1.88 1.29c-.18.13-29.67 16.95-54.37 31.04l-.23.13zM77.91 3.97c-.94 0-2.01.33-3.13.97L29.27 31.11c-4.17 2.4-7.7 8.49-7.7 13.31v35.75c0 1.03.39 25.26 29.68 25.41 3.39-1.93 42.37-24.17 51.94-29.64-21.47-6.25-21.73-25.75-21.73-25.95V8.82c0-2.14-.68-3.72-1.91-4.43-.49-.28-1.05-.42-1.66-.42z"/>
        <path id="r" class="ah" d="M33.36 42.92l37.7-21.77"/>
        <path class="an" d="M33.36 43.92c-.35 0-.68-.18-.87-.5-.28-.48-.11-1.09.37-1.37l37.7-21.77c.48-.28 1.09-.11 1.37.37s.11 1.09-.37 1.37l-37.7 21.77c-.16.09-.33.13-.5.13z"/>
        <path id="s" class="ah" d="M33.36 51.61l17.19-9.93"/>
        <path class="an" d="M33.36 52.61c-.35 0-.68-.18-.87-.5-.28-.48-.11-1.09.37-1.37l17.19-9.93c.48-.28 1.09-.11 1.37.37s.11 1.09-.37 1.37l-17.19 9.93c-.16.09-.33.13-.5.13z"/>
        <path id="t" class="ah" d="M33.36 65.49l37.7-21.77"/>
        <path class="an" d="M33.36 66.49c-.35 0-.68-.18-.87-.5-.28-.48-.11-1.09.37-1.37l37.7-21.77c.48-.28 1.09-.11 1.37.37s.11 1.09-.37 1.37l-37.7 21.77c-.16.09-.33.13-.5.13z"/>
        <path id="u" class="ah" d="M33.36 75.08l37.7-21.77"/>
        <path class="an" d="M33.36 76.08c-.35 0-.68-.18-.87-.5-.28-.48-.11-1.09.37-1.37l37.7-21.77c.48-.28 1.09-.11 1.37.37s.11 1.09-.37 1.37l-37.7 21.77c-.16.09-.33.13-.5.13z"/>
        <path id="v" class="ah" d="M33.36 84.54l37.7-21.77"/>
        <path class="an" d="M33.36 85.54c-.35 0-.68-.18-.87-.5-.28-.48-.11-1.09.37-1.37l37.7-21.77c.48-.28 1.09-.11 1.37.37s.11 1.09-.37 1.37l-37.7 21.77c-.16.09-.33.13-.5.13z"/>
        <path id="w" class="aj" d="M143 86.07l-9.14-3.7-.57.55L87.1 56.25c-.97-.56 2.95 3.65 1.75 3.54l5.09 27.23-23.15-.69c-2.91-.12 1.56 4.96 1.77 6.65l-5.47 5.99-36.88-1.53-18.16-4.47v3.71c.2.69.76 1.38 1.73 1.94l54.13 31.25c.91.53 2.02.8 3.14.94 1.53.15 3.06-.07 4.14-.69l66.54-38.42c.86-.5 1.27-1.16 1.27-1.86v-3.77z"/>
        <path id="x" d="M143 84.67l-9.14-2.3-.57.55L87.1 56.25c-.97-.56 2.95 3.65 1.75 3.54l5.09 27.23-23.15-.69c-2.91-.12 1.56 4.96 1.77 6.65l-5.47 5.99-36.88-1.53-18.16-4.47v3.71c.2.69.76 1.38 1.73 1.94l54.13 31.25c.91.53 2.02.8 3.14.94 1.53.15 3.06-.07 4.14-.69l66.54-38.42c.86-.5 1.27-1.16 1.27-1.86v-5.17z" fill="none" stroke-width="2" stroke-linejoin="round" stroke="#ccd6e2"/>
        <path id="y" class="am" d="M23.86 92.56l43.21 1.79-.74-6-42.47 4.21z"/>
        <path id="z" class="am" d="M71.06 127.03c-1.12-.13-2.23-.35-3.14-.88L13.79 94.9c-.97-.56-1.53-1.25-1.73-1.94l55.05 2.28 3.95 31.78z"/>
        <path class="an" d="M71.06 128.03h-.12c-1.05-.12-2.39-.35-3.52-1L13.29 95.78c-1.15-.67-1.91-1.54-2.19-2.53-.09-.31-.02-.64.18-.89.2-.25.5-.39.83-.38l55.05 2.28c.49.02.89.39.95.88l3.95 31.78c.04.31-.07.61-.28.83-.19.19-.44.29-.71.29zM14.33 94.07l54.09 31.23c.44.26.96.42 1.48.54l-3.68-29.62-51.89-2.15z"/>
        <path id="aa" d="M141.43 85.54h.18c-.23-.65-.78-1.29-1.69-1.81L85.79 52.48c-.97-.56-2.16-.89-3.35-1l3.95 31.78 55.05 2.28z" fill-rule="evenodd" stroke-miterlimit="10" stroke="#ccd6e2" fill="#fff"/>
        <path class="an" d="M141.6 86.54h-.04l-53.9-2.28c-.49-.02-.89-.39-.95-.88L82.76 51.6c-.04-.3.06-.6.28-.82.21-.22.5-.33.81-.3 1.42.14 2.71.53 3.76 1.13l51.1 29.5c.27.16.63.31 1 .48 1.16.51 2.17.96 2.47 1.8.01.04.03.09.04.13l.37 1.81c.06.3-.02.62-.22.85-.19.22-.47.35-.76.35zM88.58 82.3l51.78 2.19-.07-.36c-.26-.2-.99-.53-1.39-.71-.44-.19-.85-.38-1.19-.57l-51.1-29.5c-.48-.28-1.06-.5-1.7-.66l3.68 29.61z"/>
        <path id="ab" class="ah" d="M75.19 126.35l66.54-38.42c.86-.5 1.27-1.16 1.27-1.86 0-.17-.02-.35-.08-.53l-72.13-2.99c-2.91-.12-5.13 1.16-4.92 2.84l5.18 41.64c1.53.15 3.06-.07 4.14-.69z"/>
        <path class="an" d="M71.99 128.08c-.33 0-.68-.02-1.03-.05l-.8-.08-5.28-42.44c-.1-.84.17-1.63.78-2.3 1.04-1.13 2.97-1.75 5.17-1.66l72.85 3.02.2.69c.08.26.11.53.11.8 0 1.1-.63 2.07-1.77 2.73l-66.54 38.42c-.99.57-2.28.87-3.71.87zm2.71-2.6l.5.87-.5-.87 66.54-38.42c.23-.13.49-.32.64-.57l-71.11-2.95c-1.92-.07-3.14.5-3.62 1.02-.31.34-.28.61-.27.7l5.08 40.81h.01c1.08 0 2.06-.21 2.73-.6z"/>
        <path id="ac" d="M95.5 26.31c6.76 1.66 8.1 3 9.76 9.77 1.66-6.77 3-8.11 9.76-9.77-6.76-1.66-8.1-3-9.76-9.77-1.66 6.77-3 8.11-9.76 9.77" opacity=".74" fill="#cbd6e5" fill-rule="evenodd"/>
        <path id="ad" class="ap" d="M111.34 12.15c3.46.85 4.15 1.54 5 5 .85-3.47 1.53-4.16 5-5-3.46-.85-4.15-1.54-5-5-.85 3.47-1.54 4.16-5 5"/>
        <path id="ae" class="ap" d="M115.72 34.53c5.6 1.4 6.71 2.53 8.08 8.22 1.37-5.69 2.48-6.83 8.08-8.22-5.6-1.39-6.71-2.53-8.08-8.22-1.37 5.69-2.48 6.83-8.08 8.22"/>
    </g>
</svg>
