<svg width="125" height="28" viewBox="0 0 125 28" fill="none" xmlns="http://www.w3.org/2000/svg">
<path d="M50.9849 10.0291H40.8029L43.7451 0H35.2471L32.3049 10.0291H22.0665L20.0352 17.2243H30.1984L27.2311 27.3392H35.7291L38.6964 17.2243H48.7657L50.9849 10.0291Z" fill="#006D36"/>
<path d="M63.2831 13.5415C60.102 13.5415 57.9148 11.3541 57.9148 8.39573V8.36622C57.9148 5.52219 60.1735 3.19458 63.268 3.19458C65.1051 3.19458 66.2157 3.6815 67.2773 4.5668L65.8618 6.2378C65.075 5.59596 64.3748 5.2234 63.1927 5.2234C61.5589 5.2234 60.2601 6.63988 60.2601 8.3404V8.36991C60.2601 10.1995 61.5438 11.5422 63.3508 11.5422C64.1677 11.5422 64.8981 11.343 65.4665 10.941V9.51342H63.2078V7.61371H67.6424V11.9591C66.5921 12.8296 65.1503 13.5452 63.2831 13.5452V13.5415Z" fill="#006D36"/>
<path d="M74.7612 13.5415C71.6103 13.5415 69.3516 11.2398 69.3516 8.39573V8.36622C69.3516 5.52219 71.6404 3.19458 74.7914 3.19458C77.9423 3.19458 80.201 5.49636 80.201 8.3404V8.36991C80.201 11.2139 77.9122 13.5415 74.7612 13.5415ZM77.8557 8.36622C77.8557 6.65095 76.572 5.2234 74.765 5.2234C72.958 5.2234 71.7006 6.62512 71.7006 8.3404V8.36991C71.7006 10.0852 72.9844 11.5127 74.7914 11.5127C76.5984 11.5127 77.8557 10.111 77.8557 8.39573V8.36622Z" fill="#006D36"/>
<path d="M86.3862 5.39375V13.3688H84.1387V5.39375H81.033V3.36493H89.4919V5.39375H86.3862Z" fill="#006D36"/>
<path d="M97.6009 13.3688V9.35178H93.4598V13.3688H91.2124V3.36493H93.4598V7.32297H97.6009V3.36493H99.8483V13.3688H97.6009Z" fill="#006D36"/>
<path d="M109.896 13.3686L108.962 11.1258H104.644L103.711 13.3686H101.422L105.796 3.29462H107.867L112.241 13.3686H109.892H109.896ZM106.801 5.93946L105.446 9.18187H108.16L106.805 5.93946H106.801Z" fill="#006D36"/>
<path d="M121.796 13.3684V6.83565L118.923 11.1072H118.863L116.021 6.87623V13.3647H113.819V3.36084H116.239L118.923 7.59184L121.607 3.36084H124.028V13.3647H121.796V13.3684Z" fill="#006D36"/>
<path d="M62.9971 16.834H59.3643V18.826H62.6131V19.4272H59.3643V21.4708H63.0385V22.0721H58.6904V16.2365H62.9933V16.8377L62.9971 16.834Z" fill="white"/>
<path d="M64.9357 22.0681H64.2808V17.7602H64.9357V18.509C65.2255 18.0405 65.6847 17.668 66.4413 17.668C67.5065 17.668 68.1238 18.3688 68.1238 19.3941V22.0681H67.4689V19.5527C67.4689 18.7524 67.0285 18.2508 66.2531 18.2508C65.4777 18.2508 64.9357 18.7929 64.9357 19.6007V22.0681Z" fill="white"/>
<path d="M70.4056 20.841C70.4056 21.3648 70.703 21.5567 71.1472 21.5567C71.3693 21.5567 71.5538 21.5161 71.7835 21.4054V21.955C71.5538 22.0731 71.3054 22.1395 70.9929 22.1395C70.2852 22.1395 69.7506 21.7964 69.7506 20.9222V18.3216H69.137V17.7535H69.7506V16.4514H70.4056V17.7535H71.8023V18.3216H70.4056V20.8373V20.841Z" fill="white"/>
<path d="M74.7687 21.608C75.3709 21.608 75.7963 21.3646 76.1538 20.9995L76.5604 21.3572C76.1162 21.8404 75.5817 22.1649 74.7499 22.1649C73.5416 22.1649 72.5554 21.2576 72.5554 19.9151C72.5554 18.6648 73.4475 17.6653 74.6633 17.6653C75.9656 17.6653 76.7147 18.6832 76.7147 19.9483C76.7147 20.0073 76.7147 20.0737 76.7072 20.1475H73.2179C73.312 21.0806 73.9933 21.6043 74.7649 21.6043L74.7687 21.608ZM76.0522 19.6754C75.9845 18.8935 75.5252 18.2075 74.6482 18.2075C73.8841 18.2075 73.3045 18.8308 73.2179 19.6754H76.0522Z" fill="white"/>
<path d="M78.5185 22.0688H77.8635V17.7609H78.5185V18.8858C78.8422 18.1703 79.4783 17.6539 80.3139 17.6871V18.3805H80.2612C79.3014 18.3805 78.5185 19.0555 78.5185 20.3574V22.0761V22.0688Z" fill="white"/>
<path d="M83.6496 22.1619C82.8327 22.1619 82.3056 21.7266 81.9668 21.2434V23.4013H81.3118V17.7575H81.9668V18.6244C82.3244 18.1079 82.8439 17.6653 83.6496 17.6653C84.7036 17.6653 85.7502 18.4805 85.7502 19.908C85.7502 21.3356 84.7112 22.1582 83.6496 22.1582V22.1619ZM83.5291 18.2407C82.7122 18.2407 81.9367 18.9084 81.9367 19.908C81.9367 20.9077 82.7122 21.5827 83.5291 21.5827C84.346 21.5827 85.0763 20.9667 85.0763 19.9154C85.0763 18.8641 84.3611 18.2407 83.5291 18.2407Z" fill="white"/>
<path d="M87.6137 22.0688H86.9587V17.7609H87.6137V18.8858C87.9374 18.1703 88.5735 17.6539 89.4091 17.6871V18.3805H89.3564C88.3966 18.3805 87.6137 19.0555 87.6137 20.3574V22.0761V22.0688Z" fill="white"/>
<path d="M90.4182 16.8163V16.108H91.1674V16.8163H90.4182ZM90.4634 22.0691V17.7606H91.1184V22.0691H90.4634Z" fill="white"/>
<path d="M94.0957 22.1493C93.4671 22.1493 92.767 21.9059 92.2739 21.5149L92.6052 21.0576C93.0832 21.408 93.6102 21.6072 94.1258 21.6072C94.6415 21.6072 95.0367 21.3416 95.0367 20.9248V20.9064C95.0367 20.4749 94.5173 20.3052 93.9376 20.1466C93.2488 19.9548 92.4847 19.7225 92.4847 18.9295V18.9147C92.4847 18.1734 93.1133 17.6829 93.9828 17.6829C94.5173 17.6829 95.1158 17.8673 95.5637 18.1586L95.2663 18.6418C94.8598 18.3836 94.3893 18.225 93.964 18.225C93.4446 18.225 93.1133 18.4906 93.1133 18.852V18.8668C93.1133 19.2762 93.6591 19.4348 94.2425 19.6081C94.9238 19.8073 95.654 20.0655 95.654 20.84V20.8584C95.654 21.6735 94.9652 22.1493 94.0882 22.1493H94.0957Z" fill="white"/>
<path d="M98.8129 21.608C99.4151 21.608 99.8405 21.3646 100.198 20.9995L100.605 21.3572C100.164 21.8404 99.6259 22.1649 98.794 22.1649C97.5858 22.1649 96.5996 21.2576 96.5996 19.9151C96.5996 18.6648 97.4917 17.6653 98.7075 17.6653C100.01 17.6653 100.759 18.6832 100.759 19.9483C100.759 20.0073 100.759 20.0737 100.751 20.1475H97.2658C97.3599 21.0806 98.0412 21.6043 98.8129 21.6043V21.608ZM100.1 19.6754C100.032 18.8935 99.5732 18.2075 98.6962 18.2075C97.9321 18.2075 97.3524 18.8308 97.2658 19.6754H100.096H100.1Z" fill="white"/>
<path d="M103.364 22.1493C102.736 22.1493 102.036 21.9059 101.542 21.5149L101.874 21.0576C102.348 21.408 102.879 21.6072 103.394 21.6072C103.91 21.6072 104.305 21.3416 104.305 20.9248V20.9064C104.305 20.4749 103.786 20.3052 103.206 20.1466C102.517 19.9548 101.753 19.7225 101.753 18.9295V18.9147C101.753 18.1734 102.382 17.6829 103.251 17.6829C103.786 17.6829 104.384 17.8673 104.832 18.1586L104.535 18.6418C104.128 18.3836 103.658 18.225 103.233 18.225C102.713 18.225 102.382 18.4906 102.382 18.852V18.8668C102.382 19.2762 102.928 19.4348 103.515 19.6081C104.196 19.8073 104.926 20.0655 104.926 20.84V20.8584C104.926 21.6735 104.238 22.1493 103.361 22.1493H103.364Z" fill="white"/>
<path d="M108.808 16.2338H109.482V21.4607H112.832V22.0694H108.808V16.2338Z" fill="white"/>
<path d="M115.479 22.0694H114.798V16.8424H112.799V16.2338H117.478V16.8424H115.479V22.0694Z" fill="white"/>
<path d="M120.802 22.0694H118.735V16.2338H120.802C122.673 16.2338 123.968 17.4916 123.968 19.1442C123.968 20.7968 122.677 22.0694 120.802 22.0694ZM120.802 16.8424H119.405V21.4607H120.802C122.308 21.4607 123.268 20.4611 123.268 19.1589C123.268 17.8568 122.308 16.8424 120.802 16.8424Z" fill="white"/>
<path d="M13.8285 7.09704H29.5099L31.5914 0H13.9505C6.24441 0 0 6.12173 0 13.6696C0 17.4451 1.56189 20.8617 4.08469 23.3337C6.6075 25.8057 10.0975 27.3362 13.9505 27.3362H23.6036L23.6255 27.2626H27.2532L29.4192 19.868H19.0181H13.8285C12.0318 19.868 10.398 19.1503 9.21794 17.9972C8.03792 16.8409 7.30862 15.2461 7.30862 13.4795C7.30862 9.94935 10.2289 7.09397 13.8253 7.09397L13.8285 7.09704Z" fill="white"/>
</svg>
