<svg version="1.2" xmlns="http://www.w3.org/2000/svg" viewBox="0 0 55 28" width="55" height="28">
	<title>Group 14</title>
	<style>
		.s0 { fill: #006d36 } 
		.s1 { fill: #1b3d6a } 
	</style>
	<path class="s0" d="m51.9 10.4h-10.3l2.9-10.2h-8.5l-3 10.2h-10.4l-2 7.2h10.3l-3 10.3h8.5l3-10.3h10.2z"/>
	<path class="s0" d="m64.3 13.9c-3.2 0-5.4-2.2-5.4-5.2 0-2.9 2.2-5.2 5.4-5.2 1.8 0 2.9 0.5 4 1.3l-1.4 1.7c-0.8-0.6-1.5-1-2.7-1-1.7 0-3 1.4-3 3.2 0 1.8 1.3 3.2 3.2 3.2 0.8 0 1.5-0.2 2.1-0.6v-1.5h-2.3v-1.9h4.5v4.4c-1.1 0.9-2.5 1.6-4.4 1.6z"/>
	<path class="s0" d="m75.9 13.9c-3.2 0-5.5-2.3-5.5-5.2 0-2.9 2.3-5.2 5.5-5.2 3.2 0 5.5 2.3 5.5 5.2 0 2.9-2.3 5.2-5.5 5.2zm3.1-5.2c0-1.7-1.3-3.2-3.1-3.2-1.8 0-3.1 1.4-3.1 3.2 0 1.7 1.3 3.2 3.1 3.2 1.8 0 3.1-1.5 3.1-3.2z"/>
	<path class="s0" d="m87.6 5.7v8h-2.2v-8h-3.2v-2.1h8.6v2.1z"/>
	<path class="s0" d="m99 13.7v-4h-4.2v4h-2.3v-10.1h2.3v4h4.2v-4h2.2v10.1z"/>
	<path class="s0" d="m111.4 13.7l-1-2.2h-4.3l-1 2.2h-2.3l4.4-10.1h2.1l4.5 10.1h-2.4zm-3.1-7.5l-1.4 3.3h2.7l-1.3-3.3z"/>
	<path class="s0" d="m123.4 13.7v-6.6l-2.9 4.4h-0.1l-2.8-4.3v6.5h-2.3v-10.1h2.5l2.7 4.3 2.7-4.3h2.5v10.1h-2.3z"/>
	<path class="s1" d="m64 17.2h-3.7v2.1h3.3v0.6h-3.3v2h3.7v0.6h-4.4v-5.9h4.4v0.6z"/>
	<path class="s1" d="m66 22.5h-0.7v-4.3h0.7v0.7c0.2-0.4 0.7-0.8 1.5-0.8 1 0 1.7 0.7 1.7 1.7v2.7h-0.7v-2.5c0-0.8-0.4-1.3-1.2-1.3-0.8 0-1.3 0.5-1.3 1.3z"/>
	<path class="s1" d="m71.5 21.3c0 0.5 0.3 0.7 0.7 0.7 0.3 0 0.4 0 0.7-0.1v0.5q-0.4 0.2-0.8 0.2c-0.7 0-1.3-0.3-1.3-1.2v-2.7h-0.6v-0.5h0.6v-1.3h0.7v1.3h1.4v0.5h-1.4v2.6z"/>
	<path class="s1" d="m75.9 22.1c0.6 0 1-0.3 1.4-0.6l0.4 0.3c-0.5 0.5-1 0.8-1.8 0.8-1.3 0-2.2-0.9-2.2-2.2 0-1.3 0.9-2.3 2.1-2.3 1.3 0 2.1 1 2.1 2.3q0 0.1-0.1 0.2h-3.5c0.1 0.9 0.8 1.5 1.6 1.5zm1.3-2c-0.1-0.8-0.6-1.5-1.4-1.5-0.8 0-1.4 0.7-1.5 1.5z"/>
	<path class="s1" d="m79.7 22.5h-0.7v-4.3h0.7v1.1c0.3-0.7 0.9-1.2 1.8-1.2v0.7h-0.1c-0.9 0-1.7 0.7-1.7 2v1.7z"/>
	<path class="s1" d="m84.9 22.6c-0.9 0-1.4-0.4-1.7-0.9v2.2h-0.7v-5.7h0.7v0.9c0.3-0.6 0.8-1 1.7-1 1 0 2.1 0.8 2.1 2.2 0 1.5-1.1 2.3-2.1 2.3zm-0.2-3.9c-0.8 0-1.6 0.6-1.6 1.6 0 1.1 0.8 1.7 1.6 1.7 0.9 0 1.6-0.6 1.6-1.6 0-1.1-0.7-1.7-1.6-1.7z"/>
	<path class="s1" d="m88.9 22.5h-0.7v-4.3h0.7v1.1c0.3-0.7 0.9-1.2 1.8-1.2v0.7h-0.1c-0.9 0-1.7 0.7-1.7 2v1.7z"/>
	<path class="s1" d="m91.7 17.2v-0.7h0.8v0.7zm0 5.3v-4.3h0.7v4.3z"/>
	<path class="s1" d="m95.4 22.6c-0.6 0-1.3-0.2-1.8-0.6l0.3-0.5c0.5 0.4 1 0.6 1.5 0.6 0.6 0 1-0.3 1-0.7 0-0.5-0.6-0.6-1.1-0.8-0.7-0.2-1.5-0.4-1.5-1.2v-0.1c0-0.7 0.6-1.2 1.5-1.2 0.5 0 1.1 0.2 1.6 0.5l-0.3 0.5c-0.4-0.3-0.9-0.5-1.3-0.5-0.5 0-0.9 0.3-0.9 0.7 0 0.4 0.6 0.6 1.2 0.7 0.7 0.2 1.4 0.5 1.4 1.3 0 0.8-0.7 1.3-1.6 1.3z"/>
	<path class="s1" d="m100.2 22.1c0.6 0 1-0.3 1.4-0.6l0.4 0.3c-0.5 0.5-1 0.8-1.8 0.8-1.3 0-2.3-0.9-2.3-2.2 0-1.3 0.9-2.3 2.2-2.3 1.3 0 2.1 1 2.1 2.3q0 0.1-0.1 0.2h-3.5c0.1 0.9 0.8 1.5 1.6 1.5zm1.3-2c-0.1-0.8-0.5-1.5-1.4-1.5-0.8 0-1.4 0.7-1.5 1.5h2.9z"/>
	<path class="s1" d="m104.8 22.6c-0.7 0-1.4-0.2-1.9-0.6l0.4-0.5c0.5 0.4 1 0.6 1.5 0.6 0.5 0 0.9-0.3 0.9-0.7 0-0.5-0.5-0.6-1.1-0.8-0.7-0.2-1.4-0.4-1.4-1.2v-0.1c0-0.7 0.6-1.2 1.5-1.2 0.5 0 1.1 0.2 1.6 0.5l-0.3 0.5c-0.4-0.3-0.9-0.5-1.4-0.5-0.5 0-0.8 0.3-0.8 0.7 0 0.4 0.5 0.6 1.1 0.7 0.7 0.2 1.5 0.5 1.5 1.3 0 0.8-0.7 1.3-1.6 1.3z"/>
	<path class="s1" d="m110.3 16.6h0.7v5.3h3.3v0.6h-4z"/>
	<path class="s1" d="m117 22.5h-0.7v-5.2h-2v-0.7h4.7v0.7h-2z"/>
	<path class="s1" d="m122.4 22.5h-2.1v-5.9h2.1c1.9 0 3.2 1.3 3.2 3 0 1.6-1.3 2.9-3.2 2.9zm0-5.2h-1.4v4.6h1.4c1.5 0 2.5-1 2.5-2.3 0-1.3-1-2.3-2.5-2.3z"/>
	<path class="s1" d="m14.3 7.4h15.9l2.1-7.2h-17.9c-7.8 0-14.1 6.2-14.1 13.8 0 3.9 1.6 7.3 4.2 9.8 2.5 2.5 6 4.1 9.9 4.1h9.8v-0.1h3.7l2.2-7.5h-10.5-5.3c-1.8 0-3.5-0.7-4.6-1.9-1.2-1.1-2-2.8-2-4.5 0-3.6 3-6.5 6.6-6.5z"/>
</svg>