<svg width="126" height="28" viewBox="0 0 126 28" fill="none" xmlns="http://www.w3.org/2000/svg">
<path d="M51.8555 10.3678H41.5671L44.5401 0.233952H35.9533L32.9803 10.3678H22.635L20.5824 17.6382H30.8518L27.8535 27.8589H36.4403L39.4386 17.6382H49.6131L51.8555 10.3678Z" fill="#006D36"/>
<path d="M64.2824 13.9151C61.0681 13.9151 58.858 11.7048 58.858 8.71555V8.68573C58.858 5.81197 61.1403 3.46004 64.2672 3.46004C66.1235 3.46004 67.2456 3.95205 68.3183 4.8466L66.8881 6.53507C66.093 5.88652 65.3855 5.51006 64.1911 5.51006C62.5402 5.51006 61.2278 6.94135 61.2278 8.65964V8.68945C61.2278 10.5382 62.525 11.8949 64.3508 11.8949C65.1763 11.8949 65.9142 11.6937 66.4886 11.2874V9.84492H64.2063V7.92536H68.6873V12.3161C67.626 13.1958 66.1691 13.9189 64.2824 13.9189V13.9151Z" fill="#006D36"/>
<path d="M75.8804 13.9151C72.6965 13.9151 70.4142 11.5893 70.4142 8.71555V8.68573C70.4142 5.81197 72.727 3.46004 75.9108 3.46004C79.0947 3.46004 81.377 5.78588 81.377 8.65964V8.68945C81.377 11.5632 79.0643 13.9151 75.8804 13.9151ZM79.0072 8.68573C79.0072 6.95253 77.7101 5.51006 75.8842 5.51006C74.0583 5.51006 72.7878 6.92644 72.7878 8.65964V8.68945C72.7878 10.4227 74.0849 11.8651 75.9108 11.8651C77.7367 11.8651 79.0072 10.4487 79.0072 8.71555V8.68573Z" fill="#006D36"/>
<path d="M87.627 5.68153V13.74H85.356V5.68153H82.2178V3.63151H90.7652V5.68153H87.627Z" fill="#006D36"/>
<path d="M98.9587 13.74V9.68092H94.7744V13.74H92.5035V3.63151H94.7744V7.63091H98.9587V3.63151H101.23V13.74H98.9587Z" fill="#006D36"/>
<path d="M111.382 13.74L110.439 11.4738H106.076L105.133 13.74H102.82L107.24 3.56069H109.332L113.752 13.74H111.379H111.382ZM108.256 6.23317L106.886 9.50947H109.629L108.259 6.23317H108.256Z" fill="#006D36"/>
<path d="M123.407 13.74V7.13891L120.504 11.4551H120.443L117.571 7.17991V13.7362H115.346V3.62778H117.792L120.504 7.903L123.216 3.62778H125.662V13.7362H123.407V13.74Z" fill="#006D36"/>
<path d="M63.9933 17.2436H60.3225V19.2563H63.6053V19.8639H60.3225V21.9288H64.0351V22.5364H59.6416V16.6398H63.9895V17.2473L63.9933 17.2436Z" fill="#1B3D6A"/>
<path d="M65.9523 22.532H65.2905V18.1792H65.9523V18.9357C66.2452 18.4624 66.7092 18.086 67.4736 18.086C68.55 18.086 69.1738 18.7941 69.1738 19.8301V22.532H68.512V19.9904C68.512 19.1817 68.067 18.6748 67.2835 18.6748C66.5 18.6748 65.9523 19.2227 65.9523 20.0388V22.532Z" fill="#1B3D6A"/>
<path d="M71.4794 21.2915C71.4794 21.8207 71.7799 22.0146 72.2288 22.0146C72.4532 22.0146 72.6396 21.9736 72.8716 21.8617V22.4171C72.6396 22.5364 72.3885 22.6035 72.0728 22.6035C71.3577 22.6035 70.8175 22.2568 70.8175 21.3735V18.7457H70.1975V18.1717H70.8175V16.856H71.4794V18.1717H72.8906V18.7457H71.4794V21.2877V21.2915Z" fill="#1B3D6A"/>
<path d="M75.8879 22.0662C76.4964 22.0662 76.9262 21.8202 77.2875 21.4513L77.6983 21.8128C77.2495 22.301 76.7094 22.6289 75.8689 22.6289C74.648 22.6289 73.6515 21.7121 73.6515 20.3556C73.6515 19.0922 74.5529 18.0823 75.7814 18.0823C77.0974 18.0823 77.8543 19.1108 77.8543 20.3891C77.8543 20.4488 77.8543 20.5158 77.8466 20.5904H74.3209C74.416 21.5333 75.1044 22.0625 75.8841 22.0625L75.8879 22.0662ZM77.1849 20.1134C77.1164 19.3233 76.6524 18.6301 75.7662 18.6301C74.9941 18.6301 74.4084 19.2599 74.3209 20.1134H77.1849Z" fill="#1B3D6A"/>
<path d="M79.6769 22.532H79.0151V18.1792H79.6769V19.3158C80.004 18.5928 80.6468 18.0711 81.4911 18.1046V18.8053H81.4379C80.468 18.8053 79.6769 19.4873 79.6769 20.8028V22.5395V22.532Z" fill="#1B3D6A"/>
<path d="M84.8616 22.6258C84.0361 22.6258 83.5036 22.186 83.1612 21.6977V23.8782H82.4993V18.1754H83.1612V19.0514C83.5226 18.5295 84.0475 18.0823 84.8616 18.0823C85.9267 18.0823 86.9841 18.906 86.9841 20.3485C86.9841 21.7909 85.9343 22.6221 84.8616 22.6221V22.6258ZM84.7398 18.6637C83.9144 18.6637 83.1308 19.3384 83.1308 20.3485C83.1308 21.3586 83.9144 22.0407 84.7398 22.0407C85.5653 22.0407 86.3032 21.4182 86.3032 20.3559C86.3032 19.2936 85.5805 18.6637 84.7398 18.6637Z" fill="#1B3D6A"/>
<path d="M88.8672 22.532H88.2054V18.1792H88.8672V19.3158C89.1943 18.5928 89.8371 18.0711 90.6814 18.1046V18.8053H90.6282C89.6583 18.8053 88.8672 19.4873 88.8672 20.8028V22.5395V22.532Z" fill="#1B3D6A"/>
<path d="M91.7009 17.225V16.5093H92.4579V17.225H91.7009ZM91.7465 22.5327V18.1792H92.4084V22.5327H91.7465Z" fill="#1B3D6A"/>
<path d="M95.417 22.614C94.7819 22.614 94.0744 22.3681 93.5762 21.973L93.9109 21.5109C94.3939 21.865 94.9264 22.0662 95.4475 22.0662C95.9685 22.0662 96.3679 21.7979 96.3679 21.3767V21.3581C96.3679 20.9221 95.843 20.7506 95.2573 20.5904C94.5613 20.3966 93.7892 20.1618 93.7892 19.3606V19.3456C93.7892 18.5966 94.4244 18.1009 95.3029 18.1009C95.843 18.1009 96.4478 18.2872 96.9004 18.5817L96.5999 19.0699C96.1891 18.809 95.7137 18.6487 95.2839 18.6487C94.7591 18.6487 94.4244 18.9171 94.4244 19.2823V19.2972C94.4244 19.7109 94.9758 19.8711 95.5654 20.0463C96.2538 20.2475 96.9916 20.5084 96.9916 21.291V21.3097C96.9916 22.1333 96.2956 22.614 95.4094 22.614H95.417Z" fill="#1B3D6A"/>
<path d="M100.183 22.0662C100.792 22.0662 101.222 21.8202 101.583 21.4513L101.994 21.8128C101.549 22.301 101.005 22.6289 100.164 22.6289C98.9436 22.6289 97.9471 21.7121 97.9471 20.3556C97.9471 19.0922 98.8485 18.0823 100.077 18.0823C101.393 18.0823 102.15 19.1108 102.15 20.3891C102.15 20.4488 102.15 20.5158 102.142 20.5904H98.6203C98.7154 21.5333 99.4038 22.0625 100.183 22.0625V22.0662ZM101.484 20.1134C101.416 19.3233 100.952 18.6301 100.066 18.6301C99.2935 18.6301 98.7078 19.2599 98.6203 20.1134H101.48H101.484Z" fill="#1B3D6A"/>
<path d="M104.782 22.614C104.147 22.614 103.44 22.3681 102.942 21.973L103.276 21.5109C103.756 21.865 104.292 22.0662 104.813 22.0662C105.334 22.0662 105.733 21.7979 105.733 21.3767V21.3581C105.733 20.9221 105.208 20.7506 104.623 20.5904C103.927 20.3966 103.155 20.1618 103.155 19.3606V19.3456C103.155 18.5966 103.79 18.1009 104.668 18.1009C105.208 18.1009 105.813 18.2872 106.266 18.5817L105.965 19.0699C105.555 18.809 105.079 18.6487 104.649 18.6487C104.124 18.6487 103.79 18.9171 103.79 19.2823V19.2972C103.79 19.7109 104.341 19.8711 104.935 20.0463C105.623 20.2475 106.361 20.5084 106.361 21.291V21.3097C106.361 22.1333 105.665 22.614 104.779 22.614H104.782Z" fill="#1B3D6A"/>
<path d="M110.283 16.6361H110.964V21.9177H114.349V22.5327H110.283V16.6361Z" fill="#1B3D6A"/>
<path d="M117.024 22.5327H116.335V17.2511H114.315V16.6361H119.044V17.2511H117.024V22.5327Z" fill="#1B3D6A"/>
<path d="M122.402 22.5327H120.314V16.6361H122.402C124.293 16.6361 125.601 17.9071 125.601 19.5769C125.601 21.2467 124.297 22.5327 122.402 22.5327ZM122.402 17.2511H120.991V21.9177H122.402C123.924 21.9177 124.894 20.9076 124.894 19.5918C124.894 18.2761 123.924 17.2511 122.402 17.2511Z" fill="#1B3D6A"/>
<path d="M14.3108 7.40515H30.1561L32.2593 0.233952H14.4341C6.64745 0.233952 0.337784 6.41965 0.337784 14.0464C0.337784 17.8613 1.91599 21.3137 4.46516 23.8115C7.01433 26.3094 10.5408 27.8558 14.4341 27.8558H24.188L24.2101 27.7814H27.8758L30.0644 20.3096H19.5546H14.3108C12.4954 20.3096 10.8444 19.5844 9.65205 18.4192C8.4597 17.2508 7.72278 15.6393 7.72278 13.8543C7.72278 10.2873 10.6736 7.40205 14.3076 7.40205L14.3108 7.40515Z" fill="#1B3D6A"/>
</svg>
