<svg width="24" height="24" class="tiptap-button-icon" viewBox="0 0 24 24" fill="currentColor" xmlns="http://www.w3.org/2000/svg">
  <path fill-rule="evenodd" clip-rule="evenodd" d="M12 2C12.5523 2 13 2.44772 13 3V4H15C16.6569 4 18 5.34315 18 7V17C18 18.6569 16.6569 20 15 20H9C7.34315 20 6 18.6569 6 17V7C6 5.34315 7.34315 4 9 4H11V3C11 2.44772 11.4477 2 12 2ZM11 6H9C8.44772 6 8 6.44772 8 7V17C8 17.5523 8.44772 18 9 18H15C15.5523 18 16 17.5523 16 17V7C16 6.44772 15.5523 6 15 6H13V8C13 8.55228 12.5523 9 12 9C11.4477 9 11 8.55228 11 8V6ZM10 10C10 9.44772 10.4477 9 11 9H13C13.5523 9 14 9.44772 14 10C14 10.5523 13.5523 11 13 11H11C10.4477 11 10 10.5523 10 10ZM10 13C10 12.4477 10.4477 12 11 12H13C13.5523 12 14 12.4477 14 13C14 13.5523 13.5523 14 13 14H11C10.4477 14 10 13.5523 10 13ZM10 16C10 15.4477 10.4477 15 11 15H13C13.5523 15 14 15.4477 14 16C14 16.5523 13.5523 17 13 17H11C10.4477 17 10 16.5523 10 16Z" fill="currentColor"/>
</svg>
