<svg width="24" height="24" class="tiptap-button-icon" viewBox="0 0 24 24" fill="currentColor" xmlns="http://www.w3.org/2000/svg">
  <path fill-rule="evenodd" clip-rule="evenodd" d="M11.5 3C11.5 2.44772 11.9477 2 12.5 2C13.0523 2 13.5 2.44772 13.5 3V4.08579C15.8412 4.55718 17.4428 6.84018 16.9714 9.18137C16.8288 9.8789 16.5215 10.5282 16.0789 11.0789L13.5 13.5V19C13.5 19.5523 13.0523 20 12.5 20C11.9477 20 11.5 19.5523 11.5 19V13.5L8.92105 11.0789C8.47845 10.5282 8.17115 9.8789 8.02862 9.18137C7.55723 6.84018 9.15882 4.55718 11.5 4.08579V3ZM12.5 6C11.1193 6 10 7.11929 10 8.5C10 9.88071 11.1193 11 12.5 11C13.8807 11 15 9.88071 15 8.5C15 7.11929 13.8807 6 12.5 6Z" fill="currentColor"/>
</svg>
